<mxfile host="app.diagrams.net" modified="2023-11-05T01:50:33.125Z" agent="Mozilla/5.0 (Windows NT 10.0; Win64; x64) AppleWebKit/537.36 (KHTML, like Gecko) Chrome/119.0.0.0 Safari/537.36" etag="q8rE9ToXgJ-V8uiwEh22" version="22.0.8" type="github">
  <diagram name="Page-1" id="9361dd3d-8414-5efd-6122-117bd74ce7a7">
    <mxGraphModel dx="1562" dy="1222" grid="1" gridSize="10" guides="1" tooltips="1" connect="1" arrows="1" fold="1" page="0" pageScale="1.5" pageWidth="826" pageHeight="1169" background="none" math="0" shadow="0">
      <root>
        <mxCell id="0" />
        <mxCell id="1" parent="0" />
        <mxCell id="69" value="" style="fillColor=#DEE8FF;strokeColor=none" parent="1" vertex="1">
          <mxGeometry x="30" y="-39.72" width="900" height="689.72" as="geometry" />
        </mxCell>
        <mxCell id="20" value="" style="fillColor=#CCD5EB" parent="1" vertex="1">
          <mxGeometry x="130" y="410" width="380" height="180" as="geometry" />
        </mxCell>
        <mxCell id="2" value="" style="fillColor=#CC4125;strokeColor=#660000" parent="1" vertex="1">
          <mxGeometry x="200" y="150" width="10" height="240" as="geometry" />
        </mxCell>
        <mxCell id="3" value="on_resume()" style="edgeStyle=none;verticalLabelPosition=top;verticalAlign=bottom;labelPosition=left;align=right" parent="1" edge="1">
          <mxGeometry x="110" y="49.5" width="100" height="100" as="geometry">
            <mxPoint x="110" y="149.5" as="sourcePoint" />
            <mxPoint x="200" y="149.5" as="targetPoint" />
          </mxGeometry>
        </mxCell>
        <mxCell id="4" value="App&#xa;Login Prompt" style="shadow=1;fillColor=#A2C4C9;strokeColor=none" parent="1" vertex="1">
          <mxGeometry x="152.5" y="60" width="105" height="50" as="geometry" />
        </mxCell>
        <mxCell id="TlmbEv91HoOFU6v3qmQg-95" style="edgeStyle=orthogonalEdgeStyle;rounded=0;orthogonalLoop=1;jettySize=auto;html=1;entryX=0.5;entryY=0;entryDx=0;entryDy=0;exitX=0;exitY=1;exitDx=0;exitDy=0;" edge="1" parent="1" source="6" target="48">
          <mxGeometry relative="1" as="geometry">
            <Array as="points">
              <mxPoint x="300" y="390" />
              <mxPoint x="300" y="440" />
              <mxPoint x="348" y="440" />
            </Array>
          </mxGeometry>
        </mxCell>
        <mxCell id="TlmbEv91HoOFU6v3qmQg-97" value="&amp;lt;&amp;lt;async&amp;gt;&amp;gt; per tick" style="edgeLabel;html=1;align=center;verticalAlign=middle;resizable=0;points=[];" vertex="1" connectable="0" parent="TlmbEv91HoOFU6v3qmQg-95">
          <mxGeometry x="-0.7697" y="-2" relative="1" as="geometry">
            <mxPoint x="-33" y="-8" as="offset" />
          </mxGeometry>
        </mxCell>
        <mxCell id="6" value="" style="fillColor=#CC4125;strokeColor=#660000" parent="1" vertex="1">
          <mxGeometry x="342.5" y="180" width="10" height="210" as="geometry" />
        </mxCell>
        <mxCell id="7" value="OAuth Service" style="shadow=1;fillColor=#A2C4C9;strokeColor=none" parent="1" vertex="1">
          <mxGeometry x="295" y="60" width="105" height="50" as="geometry" />
        </mxCell>
        <mxCell id="8" value="" style="edgeStyle=none;endArrow=none;dashed=1" parent="1" source="7" target="6" edge="1">
          <mxGeometry x="272.3350694444445" y="165" width="100" height="100" as="geometry">
            <mxPoint x="347.2588734567901" y="110" as="sourcePoint" />
            <mxPoint x="347.5761959876544" y="165" as="targetPoint" />
          </mxGeometry>
        </mxCell>
        <mxCell id="9" value="auth (ID, scope, redirect url)" style="edgeStyle=none;verticalLabelPosition=top;verticalAlign=bottom" parent="1" edge="1">
          <mxGeometry width="100" height="100" as="geometry">
            <mxPoint x="210" y="179.5" as="sourcePoint" />
            <mxPoint x="340" y="179.5" as="targetPoint" />
            <mxPoint as="offset" />
          </mxGeometry>
        </mxCell>
        <mxCell id="11" value="login page" style="edgeStyle=none;verticalLabelPosition=top;verticalAlign=bottom;endArrow=none;startArrow=classic;dashed=1" parent="1" edge="1">
          <mxGeometry x="220" y="172.25887345679013" width="100" height="100" as="geometry">
            <mxPoint x="210" y="210.03887345679013" as="sourcePoint" />
            <mxPoint x="340" y="210.03887345679013" as="targetPoint" />
          </mxGeometry>
        </mxCell>
        <mxCell id="15" value="Google Cloud&#xa;Resource Service" style="shadow=1;fillColor=#A2C4C9;strokeColor=none" parent="1" vertex="1">
          <mxGeometry x="462.2839506172839" y="59.99999999999997" width="105" height="50" as="geometry" />
        </mxCell>
        <mxCell id="16" value="" style="edgeStyle=none;endArrow=none;dashed=1;" parent="1" source="15" target="17" edge="1">
          <mxGeometry x="437.042824074074" y="270" width="100" height="100" as="geometry">
            <mxPoint x="514.542824074074" y="219.99999999999997" as="sourcePoint" />
            <mxPoint x="514.542824074074" y="239.99999999999997" as="targetPoint" />
          </mxGeometry>
        </mxCell>
        <mxCell id="17" value="" style="fillColor=#CC4125;strokeColor=#660000" parent="1" vertex="1">
          <mxGeometry x="509.78" y="180.17" width="10" height="209.83" as="geometry" />
        </mxCell>
        <mxCell id="19" value="&lt;&lt;request foward&gt;&gt;" style="edgeStyle=elbowEdgeStyle;elbow=vertical;verticalLabelPosition=top;verticalAlign=bottom" parent="1" edge="1">
          <mxGeometry x="350" y="290" width="100" height="100" as="geometry">
            <mxPoint x="352.5" y="190" as="sourcePoint" />
            <mxPoint x="509.78395061728384" y="190" as="targetPoint" />
            <Array as="points">
              <mxPoint x="430" y="190" />
            </Array>
          </mxGeometry>
        </mxCell>
        <mxCell id="21" value="" style="fillColor=#CC4125;strokeColor=#660000" parent="1" vertex="1">
          <mxGeometry x="670" y="269.3942901234568" width="10" height="80" as="geometry" />
        </mxCell>
        <mxCell id="22" value="Maps API&#xa;Resource Instance" style="shadow=1;fillColor=#A2C4C9;strokeColor=none" parent="1" vertex="1">
          <mxGeometry x="619.86" y="200" width="105" height="50" as="geometry" />
        </mxCell>
        <mxCell id="23" value="" style="edgeStyle=none;endArrow=none;dashed=1" parent="1" source="22" target="21" edge="1">
          <mxGeometry x="614.4878472222224" y="174.99999999999997" width="100" height="100" as="geometry">
            <mxPoint x="674.6527777777778" y="110" as="sourcePoint" />
            <mxPoint x="674.6527777777778" y="260" as="targetPoint" />
          </mxGeometry>
        </mxCell>
        <mxCell id="27" value="&lt;&lt;location data + tkn&gt;&gt;" style="edgeStyle=elbowEdgeStyle;elbow=vertical;verticalLabelPosition=top;verticalAlign=bottom" parent="1" source="17" target="21" edge="1">
          <mxGeometry x="540" y="270" width="100" height="100" as="geometry">
            <mxPoint x="540" y="370" as="sourcePoint" />
            <mxPoint x="640" y="270" as="targetPoint" />
            <Array as="points">
              <mxPoint x="590" y="270" />
            </Array>
          </mxGeometry>
        </mxCell>
        <mxCell id="28" value="&lt;&lt;location + overlay&gt;&gt;" style="edgeStyle=elbowEdgeStyle;elbow=vertical;dashed=1;verticalLabelPosition=bottom;verticalAlign=top" parent="1" source="21" target="17" edge="1">
          <mxGeometry width="100" height="100" as="geometry">
            <mxPoint x="529.7839506172838" y="280" as="sourcePoint" />
            <mxPoint x="680" y="280" as="targetPoint" />
            <Array as="points">
              <mxPoint x="593" y="348" />
            </Array>
            <mxPoint x="-2" y="-18" as="offset" />
          </mxGeometry>
        </mxCell>
        <mxCell id="33" value="" style="edgeStyle=elbowEdgeStyle;elbow=horizontal;endArrow=none;dashed=1" parent="1" source="4" target="2" edge="1">
          <mxGeometry x="230.00000000000003" y="310" width="100" height="100" as="geometry">
            <mxPoint x="230.00000000000003" y="410" as="sourcePoint" />
            <mxPoint x="330" y="310" as="targetPoint" />
          </mxGeometry>
        </mxCell>
        <mxCell id="TlmbEv91HoOFU6v3qmQg-99" style="edgeStyle=orthogonalEdgeStyle;rounded=0;orthogonalLoop=1;jettySize=auto;html=1;entryX=0;entryY=0.75;entryDx=0;entryDy=0;" edge="1" parent="1" source="48" target="2">
          <mxGeometry relative="1" as="geometry">
            <Array as="points">
              <mxPoint x="130" y="512" />
              <mxPoint x="130" y="330" />
            </Array>
          </mxGeometry>
        </mxCell>
        <mxCell id="48" value="" style="fillColor=#CC4125;strokeColor=#660000" parent="1" vertex="1">
          <mxGeometry x="342.5" y="464.17" width="10" height="95.83" as="geometry" />
        </mxCell>
        <mxCell id="53" value="setContentView(return)" style="edgeStyle=elbowEdgeStyle;verticalLabelPosition=top;verticalAlign=bottom;entryX=1;entryY=1;entryDx=0;entryDy=0;" parent="1" edge="1" target="48">
          <mxGeometry width="100" height="100" as="geometry">
            <mxPoint x="352.5" y="477.56944444444446" as="sourcePoint" />
            <mxPoint x="660" y="480" as="targetPoint" />
            <Array as="points">
              <mxPoint x="440" y="520" />
            </Array>
            <mxPoint x="88" y="1" as="offset" />
          </mxGeometry>
        </mxCell>
        <mxCell id="71" value="Google OAuth2" style="rounded=1;fontStyle=1;fillColor=#FFD966;strokeColor=none" parent="1" vertex="1">
          <mxGeometry x="60" y="-20" width="150" height="30" as="geometry" />
        </mxCell>
        <mxCell id="arfWwl5jQfl1C0P0SDZw-93" value="consent prompt" style="edgeStyle=none;verticalLabelPosition=top;verticalAlign=bottom;endArrow=none;startArrow=classic;dashed=1;entryX=0.262;entryY=0.325;entryDx=0;entryDy=0;exitX=0.962;exitY=0.399;exitDx=0;exitDy=0;exitPerimeter=0;entryPerimeter=0;" parent="1" source="2" target="17" edge="1">
          <mxGeometry width="100" height="100" as="geometry">
            <mxPoint x="210" y="270.03887345679016" as="sourcePoint" />
            <mxPoint x="340" y="270.03887345679016" as="targetPoint" />
            <mxPoint x="70" y="-2" as="offset" />
          </mxGeometry>
        </mxCell>
        <mxCell id="arfWwl5jQfl1C0P0SDZw-94" value="consent approval" style="edgeStyle=none;verticalLabelPosition=top;verticalAlign=bottom;entryX=-0.218;entryY=0.466;entryDx=0;entryDy=0;entryPerimeter=0;" parent="1" target="17" edge="1">
          <mxGeometry width="100" height="100" as="geometry">
            <mxPoint x="212.5" y="278.67" as="sourcePoint" />
            <mxPoint x="342.5" y="278.67" as="targetPoint" />
            <mxPoint x="-81" as="offset" />
          </mxGeometry>
        </mxCell>
        <mxCell id="arfWwl5jQfl1C0P0SDZw-95" value="return " style="edgeStyle=none;verticalLabelPosition=top;verticalAlign=bottom;endArrow=none;startArrow=classic;dashed=1;entryX=0.5;entryY=0.619;entryDx=0;entryDy=0;entryPerimeter=0;" parent="1" edge="1">
          <mxGeometry x="220" y="172.25887345679013" width="100" height="100" as="geometry">
            <mxPoint x="347.5" y="379.9988734567901" as="sourcePoint" />
            <mxPoint x="509.77999999999975" y="381.0047700000002" as="targetPoint" />
          </mxGeometry>
        </mxCell>
        <mxCell id="TlmbEv91HoOFU6v3qmQg-93" value="" style="edgeStyle=none;endArrow=none;dashed=1;" edge="1" parent="1">
          <mxGeometry x="437.042824074074" y="270" width="100" height="100" as="geometry">
            <mxPoint x="804.5" y="110.17" as="sourcePoint" />
            <mxPoint x="804.5" y="180.17" as="targetPoint" />
          </mxGeometry>
        </mxCell>
        <mxCell id="TlmbEv91HoOFU6v3qmQg-89" value="" style="fillColor=#CC4125;strokeColor=#660000" vertex="1" parent="1">
          <mxGeometry x="800" y="169.39" width="10" height="220.61" as="geometry" />
        </mxCell>
        <mxCell id="TlmbEv91HoOFU6v3qmQg-91" value="&lt;&lt;request foward&gt;&gt;" style="edgeStyle=elbowEdgeStyle;elbow=vertical;verticalLabelPosition=top;verticalAlign=bottom;" edge="1" parent="1">
          <mxGeometry x="350" y="290" width="100" height="100" as="geometry">
            <mxPoint x="522.72" y="190" as="sourcePoint" />
            <mxPoint x="805" y="190" as="targetPoint" />
            <Array as="points">
              <mxPoint x="600.22" y="190" />
            </Array>
          </mxGeometry>
        </mxCell>
        <mxCell id="TlmbEv91HoOFU6v3qmQg-90" value="Firebase&#xa;Resource Instance" style="shadow=1;fillColor=#A2C4C9;strokeColor=none" vertex="1" parent="1">
          <mxGeometry x="752.5" y="60" width="105" height="50" as="geometry" />
        </mxCell>
        <mxCell id="TlmbEv91HoOFU6v3qmQg-92" value="overlay{[&#39;ssid&#39;],[&#39;freq&#39;]}" style="edgeStyle=elbowEdgeStyle;elbow=vertical;dashed=1;verticalLabelPosition=bottom;verticalAlign=top" edge="1" parent="1">
          <mxGeometry width="100" height="100" as="geometry">
            <mxPoint x="790" y="300" as="sourcePoint" />
            <mxPoint x="680" y="300" as="targetPoint" />
            <Array as="points">
              <mxPoint x="753" y="300" />
            </Array>
            <mxPoint x="5" y="-30" as="offset" />
          </mxGeometry>
        </mxCell>
        <mxCell id="TlmbEv91HoOFU6v3qmQg-94" value="else &lt;&lt;NoneType&gt;&gt;" style="edgeStyle=elbowEdgeStyle;elbow=vertical;dashed=1;verticalLabelPosition=bottom;verticalAlign=top;exitX=0.25;exitY=1;exitDx=0;exitDy=0;" edge="1" parent="1">
          <mxGeometry width="100" height="100" as="geometry">
            <mxPoint x="800" y="364.34" as="sourcePoint" />
            <mxPoint x="517.5" y="360" as="targetPoint" />
            <Array as="points">
              <mxPoint x="590.5" y="360" />
            </Array>
            <mxPoint x="-1" y="-2" as="offset" />
          </mxGeometry>
        </mxCell>
        <mxCell id="TlmbEv91HoOFU6v3qmQg-96" value="Main Activity View" style="rounded=1;fontStyle=1;fillColor=#FFD966;strokeColor=none" vertex="1" parent="1">
          <mxGeometry x="145" y="420" width="150" height="30" as="geometry" />
        </mxCell>
      </root>
    </mxGraphModel>
  </diagram>
</mxfile>
